<svg
                  xmlns="http://www.w3.org/2000/svg"
                  className="w-20 fill-current text-green-500 mt-5 mb-5 shadow-xl rounded-full"
                  viewBox="0 0 375 375"
                  version="1.2"
                >
                  <defs>
                    <clipPath id="a">
                      <path d="M175 56.324h24v263.25h-24zm0 0" />
                    </clipPath>
                    <clipPath id="b">
                      <path d="M55.566 176h263.25v24H55.566zm0 0" />
                    </clipPath>
                  </defs>
                  <path d="M187.5 0c-3.07 0-6.137.074-9.2.227a184.86 184.86 0 00-9.179.675c-3.055.301-6.098.676-9.133 1.13-3.035.448-6.058.972-9.066 1.57a194.887 194.887 0 00-8.98 2.015 188.683 188.683 0 00-17.61 5.344 188.886 188.886 0 00-8.586 3.312 183.522 183.522 0 00-8.414 3.73 181.548 181.548 0 00-8.219 4.138 185.587 185.587 0 00-8.008 4.535A187.46 187.46 0 0061.582 48.57a185.854 185.854 0 00-6.664 6.347 185.854 185.854 0 00-12.36 13.633 188.074 188.074 0 00-10.96 14.781 188.78 188.78 0 00-4.922 7.773c-1.578 2.633-3.09 5.301-4.535 8.008a181.548 181.548 0 00-4.137 8.219 183.522 183.522 0 00-3.73 8.414 187.336 187.336 0 00-12.242 44.242 183.815 183.815 0 00-1.13 9.133 184.86 184.86 0 00-.675 9.18A185.128 185.128 0 000 187.5c0 3.07.074 6.137.227 9.2.148 3.066.375 6.124.675 9.179.301 3.055.676 6.098 1.13 9.133.448 3.035.972 6.058 1.57 9.066a189.928 189.928 0 004.472 17.852 187.336 187.336 0 0014.067 33.957 185.587 185.587 0 004.535 8.008 187.46 187.46 0 0021.895 29.523 185.854 185.854 0 006.347 6.664 185.854 185.854 0 0013.633 12.356 184.39 184.39 0 007.254 5.664 187.46 187.46 0 0039.941 22.625 187.336 187.336 0 0044.242 12.242c3.035.453 6.078.828 9.133 1.129 3.055.3 6.113.527 9.18.675 3.062.153 6.129.227 9.199.227 3.07 0 6.137-.074 9.2-.227a184.86 184.86 0 009.179-.675c3.055-.301 6.098-.676 9.133-1.13a187.02 187.02 0 009.066-1.57 189.928 189.928 0 0017.852-4.472 187.336 187.336 0 0033.957-14.067 185.587 185.587 0 008.008-4.535 187.46 187.46 0 0015.3-10.223 188.705 188.705 0 0014.223-11.672 185.854 185.854 0 006.664-6.347 185.854 185.854 0 0012.356-13.633 184.39 184.39 0 005.664-7.254 187.46 187.46 0 0022.625-39.941 187.336 187.336 0 0012.242-44.242c.453-3.035.828-6.078 1.129-9.133.3-3.055.527-6.113.675-9.18.153-3.062.227-6.129.227-9.199 0-3.07-.074-6.137-.227-9.2a184.86 184.86 0 00-.675-9.179c-.301-3.055-.676-6.098-1.13-9.133a187.02 187.02 0 00-1.57-9.066 189.928 189.928 0 00-4.472-17.852 187.336 187.336 0 00-14.067-33.957 185.587 185.587 0 00-4.535-8.008 187.46 187.46 0 00-10.223-15.3 188.705 188.705 0 00-11.672-14.223 185.854 185.854 0 00-6.347-6.664 185.854 185.854 0 00-13.633-12.36 188.074 188.074 0 00-14.781-10.96 188.78 188.78 0 00-7.773-4.922c-2.633-1.578-5.301-3.09-8.008-4.535a181.548 181.548 0 00-8.219-4.137 185.429 185.429 0 00-8.414-3.73 187.336 187.336 0 00-44.242-12.242 183.815 183.815 0 00-9.133-1.13 184.86 184.86 0 00-9.18-.675A185.128 185.128 0 00187.5 0zm0 0" />
                  <g clip-path="url(#a)">
                    <path
                      d="M187.137 319.508c-6.403 0-11.594-5.192-11.594-11.594V67.88c0-6.402 5.191-11.598 11.594-11.598 6.402 0 11.593 5.196 11.593 11.598v240.035c0 6.402-5.19 11.594-11.593 11.594"
                      fill="#fff"
                    />
                  </g>
                  <g clip-path="url(#b)">
                    <path
                      d="M307.156 199.492H67.117c-6.402 0-11.594-5.195-11.594-11.597 0-6.403 5.192-11.594 11.594-11.594h240.04c6.402 0 11.593 5.191 11.593 11.594 0 6.402-5.191 11.597-11.594 11.597"
                      fill="#fff"
                    />
                  </g>
                </svg>