<?xml version="1.0" encoding="UTF-8"?>
<svg xmlns="http://www.w3.org/2000/svg" xmlns:xlink="http://www.w3.org/1999/xlink" width="150" height="150" viewBox="0 0 810 1439.999935" version="1.2">
<defs>
<clipPath id="clip1">
  <path d="M 377 362.585938 L 594 362.585938 L 594 552 L 377 552 Z M 377 362.585938 "/>
</clipPath>
<clipPath id="clip2">
  <path d="M 377 362.585938 L 540 362.585938 L 540 552 L 377 552 Z M 377 362.585938 "/>
</clipPath>
<clipPath id="clip3">
  <path d="M 215 969 L 324 969 L 324 1077.265625 L 215 1077.265625 Z M 215 969 "/>
</clipPath>
<clipPath id="clip4">
  <path d="M 593 969 L 702 969 L 702 1077.265625 L 593 1077.265625 Z M 593 969 "/>
</clipPath>
</defs>
<g id="surface1">
<path style=" stroke:none;fill-rule:nonzero;fill:rgb(91.369629%,59.21936%,9.01947%);fill-opacity:1;" d="M 795.875 551.371094 L 728.4375 875 L 215.925781 875 L 148.492188 551.371094 L 795.875 551.371094 "/>
<path style=" stroke:none;fill-rule:nonzero;fill:rgb(27.059937%,50.979614%,79.998779%);fill-opacity:1;" d="M 620.542969 632.277344 L 418.234375 794.09375 L 418.234375 875 L 634.027344 875 L 661.003906 632.277344 L 620.542969 632.277344 "/>
<path style=" stroke:none;fill-rule:nonzero;fill:rgb(92.158508%,18.03894%,22.349548%);fill-opacity:1;" d="M 728.4375 875 L 580.082031 875 L 587.816406 782.160156 L 647.515625 794.09375 L 728.4375 875 "/>
<path style=" stroke:none;fill-rule:nonzero;fill:rgb(98.429871%,81.959534%,14.118958%);fill-opacity:1;" d="M 755.414062 551.371094 L 620.542969 551.371094 L 661.003906 470.464844 L 714.953125 470.464844 L 755.414062 551.371094 "/>
<path style=" stroke:none;fill-rule:nonzero;fill:rgb(98.429871%,81.959534%,14.118958%);fill-opacity:1;" d="M 755.414062 551.371094 L 755.414062 713.183594 L 661.003906 713.183594 L 661.003906 632.277344 L 620.542969 632.277344 L 620.542969 551.371094 L 755.414062 551.371094 "/>
<path style=" stroke:none;fill-rule:nonzero;fill:rgb(18.429565%,50.979614%,32.548523%);fill-opacity:1;" d="M 755.414062 713.183594 L 755.414062 699.699219 L 661.003906 632.277344 L 647.515625 713.183594 L 593.566406 713.183594 L 580.082031 875 L 728.4375 875 L 762.15625 713.183594 L 755.414062 713.183594 "/>
<path style=" stroke:none;fill-rule:nonzero;fill:rgb(91.369629%,59.21936%,9.01947%);fill-opacity:1;" d="M 728.4375 470.464844 L 647.515625 470.464844 L 647.515625 443.496094 C 647.515625 428.601562 659.59375 416.527344 674.492188 416.527344 L 701.464844 416.527344 C 716.363281 416.527344 728.4375 428.601562 728.4375 443.496094 L 728.4375 470.464844 "/>
<path style=" stroke:none;fill-rule:nonzero;fill:rgb(58.428955%,32.548523%,23.919678%);fill-opacity:1;" d="M 350.796875 794.09375 L 350.796875 875 L 215.925781 875 L 199.066406 794.09375 L 350.796875 794.09375 "/>
<path style=" stroke:none;fill-rule:nonzero;fill:rgb(25.099182%,67.83905%,41.569519%);fill-opacity:1;" d="M 404.746094 510.917969 L 404.746094 632.277344 L 161.976562 632.277344 L 136.617188 498.835938 C 136.617188 498.835938 136.617188 498.835938 137.546875 497.433594 C 145.453125 485.496094 159.140625 477.601562 174.695312 477.601562 C 177.738281 477.601562 180.707031 477.902344 183.578125 478.484375 C 183.578125 478.1875 183.558594 477.898438 183.558594 477.601562 C 183.558594 443.871094 211.335938 416.527344 245.601562 416.527344 C 272.523438 416.527344 295.433594 433.414062 304.015625 457.011719 C 311.488281 443.304688 326.183594 433.972656 343.09375 433.972656 C 367.566406 433.972656 387.40625 453.507812 387.40625 477.601562 C 387.40625 487.914062 383.765625 497.375 377.695312 504.839844 C 380.820312 504.15625 384.070312 503.78125 387.40625 503.78125 L 404.746094 510.917969 "/>
<g clip-path="url(#clip1)" clip-rule="nonzero">
<path style=" stroke:none;fill-rule:nonzero;fill:rgb(76.078796%,47.839355%,36.468506%);fill-opacity:1;" d="M 593.566406 551.371094 L 377.773438 551.371094 L 377.773438 362.585938 L 593.566406 362.585938 L 593.566406 551.371094 "/>
</g>
<g clip-path="url(#clip2)" clip-rule="nonzero">
<path style=" stroke:none;fill-rule:nonzero;fill:rgb(82.348633%,51.368713%,39.99939%);fill-opacity:1;" d="M 377.773438 551.371094 L 539.617188 551.371094 L 539.617188 362.585938 L 377.773438 362.585938 L 377.773438 551.371094 "/>
</g>
<path style=" stroke:none;fill-rule:nonzero;fill:rgb(58.428955%,32.548523%,23.919678%);fill-opacity:1;" d="M 485.671875 430.011719 L 431.722656 430.011719 C 424.273438 430.011719 418.234375 423.972656 418.234375 416.527344 C 418.234375 409.078125 424.273438 403.042969 431.722656 403.042969 L 485.671875 403.042969 C 493.117188 403.042969 499.15625 409.078125 499.15625 416.527344 C 499.15625 423.972656 493.117188 430.011719 485.671875 430.011719 "/>
<path style=" stroke:none;fill-rule:nonzero;fill:rgb(18.429565%,50.979614%,32.548523%);fill-opacity:1;" d="M 404.746094 632.277344 L 337.3125 632.277344 L 350.796875 713.183594 L 283.363281 713.183594 L 215.925781 794.09375 L 199.066406 794.09375 L 148.492188 551.371094 L 404.746094 551.371094 L 404.746094 632.277344 "/>
<path style=" stroke:none;fill-rule:nonzero;fill:rgb(82.348633%,82.749939%,82.749939%);fill-opacity:1;" d="M 755.414062 996.359375 L 215.925781 996.359375 C 186.179688 996.359375 161.976562 972.164062 161.976562 942.421875 L 161.976562 915.453125 C 161.976562 885.710938 186.179688 861.515625 215.925781 861.515625 L 229.414062 861.515625 C 236.863281 861.515625 242.902344 867.554688 242.902344 875 C 242.902344 882.445312 236.863281 888.484375 229.414062 888.484375 L 215.925781 888.484375 C 201.054688 888.484375 188.953125 900.585938 188.953125 915.453125 L 188.953125 942.421875 C 188.953125 957.289062 201.054688 969.390625 215.925781 969.390625 L 755.414062 969.390625 C 762.863281 969.390625 768.902344 975.429688 768.902344 982.875 C 768.902344 990.324219 762.863281 996.359375 755.414062 996.359375 "/>
<g clip-path="url(#clip3)" clip-rule="nonzero">
<path style=" stroke:none;fill-rule:nonzero;fill:rgb(47.44873%,50.588989%,52.938843%);fill-opacity:1;" d="M 323.824219 1023.328125 C 323.824219 1053.117188 299.667969 1077.265625 269.875 1077.265625 C 240.082031 1077.265625 215.925781 1053.117188 215.925781 1023.328125 C 215.925781 993.542969 240.082031 969.390625 269.875 969.390625 C 299.667969 969.390625 323.824219 993.542969 323.824219 1023.328125 "/>
</g>
<g clip-path="url(#clip4)" clip-rule="nonzero">
<path style=" stroke:none;fill-rule:nonzero;fill:rgb(47.44873%,50.588989%,52.938843%);fill-opacity:1;" d="M 701.464844 1023.328125 C 701.464844 1053.117188 677.308594 1077.265625 647.515625 1077.265625 C 617.722656 1077.265625 593.566406 1053.117188 593.566406 1023.328125 C 593.566406 993.542969 617.722656 969.390625 647.515625 969.390625 C 677.308594 969.390625 701.464844 993.542969 701.464844 1023.328125 "/>
</g>
<path style=" stroke:none;fill-rule:nonzero;fill:rgb(23.139954%,24.708557%,26.669312%);fill-opacity:1;" d="M 283.363281 1023.328125 C 283.363281 1030.777344 277.324219 1036.8125 269.875 1036.8125 C 262.425781 1036.8125 256.386719 1030.777344 256.386719 1023.328125 C 256.386719 1015.882812 262.425781 1009.84375 269.875 1009.84375 C 277.324219 1009.84375 283.363281 1015.882812 283.363281 1023.328125 "/>
<path style=" stroke:none;fill-rule:nonzero;fill:rgb(23.139954%,24.708557%,26.669312%);fill-opacity:1;" d="M 661.003906 1023.328125 C 661.003906 1030.777344 654.964844 1036.8125 647.515625 1036.8125 C 640.066406 1036.8125 634.027344 1030.777344 634.027344 1023.328125 C 634.027344 1015.882812 640.066406 1009.84375 647.515625 1009.84375 C 654.964844 1009.84375 661.003906 1015.882812 661.003906 1023.328125 "/>
<path style=" stroke:none;fill-rule:nonzero;fill:rgb(92.158508%,18.03894%,22.349548%);fill-opacity:1;" d="M 472.183594 713.183594 L 445.207031 632.277344 L 404.746094 632.277344 L 404.746094 551.371094 L 620.542969 551.371094 L 620.542969 632.277344 L 526.132812 713.183594 L 472.183594 713.183594 "/>
<path style=" stroke:none;fill-rule:nonzero;fill:rgb(82.348633%,82.749939%,82.749939%);fill-opacity:1;" d="M 768.042969 618.792969 L 679.652344 618.792969 L 686.398438 564.855469 L 779.285156 564.855469 Z M 751.191406 699.699219 L 669.539062 699.699219 L 676.28125 645.761719 L 762.425781 645.761719 Z M 734.332031 780.609375 L 659.421875 780.609375 L 666.167969 726.667969 L 745.566406 726.667969 Z M 717.472656 861.515625 L 649.308594 861.515625 L 656.050781 807.578125 L 728.710938 807.578125 Z M 642.351562 699.699219 L 546.933594 699.699219 L 549.179688 645.761719 L 649.097656 645.761719 Z M 632.238281 780.609375 L 543.5625 780.609375 L 545.808594 726.667969 L 638.980469 726.667969 Z M 622.121094 861.515625 L 540.191406 861.515625 L 542.4375 807.578125 L 628.867188 807.578125 Z M 523.304688 618.792969 L 421.054688 618.792969 L 418.808594 564.855469 L 525.558594 564.855469 Z M 519.933594 699.699219 L 424.425781 699.699219 L 422.179688 645.761719 L 522.1875 645.761719 Z M 516.5625 780.609375 L 427.796875 780.609375 L 425.550781 726.667969 L 518.816406 726.667969 Z M 513.191406 861.515625 L 431.167969 861.515625 L 428.921875 807.578125 L 515.441406 807.578125 Z M 322.242188 861.515625 L 315.5 807.578125 L 401.921875 807.578125 L 404.175781 861.515625 Z M 305.382812 726.667969 L 398.550781 726.667969 L 400.800781 780.609375 L 312.128906 780.609375 Z M 295.269531 645.761719 L 395.179688 645.761719 L 397.429688 699.699219 L 302.011719 699.699219 Z M 226.609375 861.515625 L 213.910156 807.578125 L 288.316406 807.578125 L 295.058594 861.515625 Z M 194.871094 726.667969 L 278.199219 726.667969 L 284.941406 780.609375 L 207.570312 780.609375 Z M 175.832031 645.761719 L 268.085938 645.761719 L 274.828125 699.699219 L 188.523438 699.699219 Z M 156.796875 564.855469 L 257.96875 564.855469 L 264.710938 618.792969 L 169.484375 618.792969 Z M 391.804688 564.855469 L 394.058594 618.792969 L 291.898438 618.792969 L 285.152344 564.855469 Z M 552.554688 564.855469 L 659.210938 564.855469 L 652.46875 618.792969 L 550.308594 618.792969 Z M 806.339844 542.863281 C 803.777344 539.71875 799.933594 537.886719 795.875 537.886719 L 150.445312 537.886719 L 121.152344 413.4375 C 119.726562 407.347656 114.285156 403.042969 108.027344 403.042969 L 13.617188 403.042969 C 6.171875 403.042969 0.132812 409.078125 0.132812 416.527344 C 0.132812 423.972656 6.171875 430.011719 13.617188 430.011719 L 97.347656 430.011719 L 202.796875 878.085938 C 204.230469 884.179688 209.671875 888.484375 215.925781 888.484375 L 728.4375 888.484375 C 734.828125 888.484375 740.339844 884 741.644531 877.75 L 809.078125 554.125 C 809.910156 550.144531 808.902344 546.011719 806.339844 542.863281 "/>
</g>
</svg>
