<svg
                  xmlns="http://www.w3.org/2000/svg"
                  className="w-20 mt-5 mb-5 fill-current text-green-500 shadow-xl rounded-full"
                  viewBox="0 0 375 375"
                  version="1.2"
                >
                  <defs>
                    <clipPath id="a">
                      <path d="M89.47 57.66h195.75v259.5H89.47zm0 0" />
                    </clipPath>
                  </defs>
                  <path d="M187.5 0a185.13 185.13 0 00-27.51 2.03A187.02 187.02 0 0083.33 31.6 187.46 187.46 0 0018 267.67a181.55 181.55 0 008.68 16.22 188.78 188.78 0 0021.89 29.53 185.85 185.85 0 0019.98 19.02 184.39 184.39 0 0022.56 15.88 185.59 185.59 0 0024.64 12.4 188.89 188.89 0 0035.17 10.68 187.02 187.02 0 0045.78 3.37 184.86 184.86 0 0027.38-3.37 189.93 189.93 0 0035.17-10.67 185.43 185.43 0 0024.64-12.4 188.78 188.78 0 0029.53-21.9 185.85 185.85 0 0019.02-19.98 184.39 184.39 0 0015.88-22.56 185.59 185.59 0 0012.4-24.64 188.89 188.89 0 0010.68-35.17 187.02 187.02 0 003.37-45.78 184.86 184.86 0 00-3.37-27.38 189.93 189.93 0 00-10.67-35.17 183.52 183.52 0 00-7.87-16.64 185.59 185.59 0 00-20.42-30.56 188.7 188.7 0 00-26-26 188.07 188.07 0 00-47.19-28.28A188.89 188.89 0 00224.08 3.6 187.02 187.02 0 00187.5 0zm0 0" />
                  <g clip-path="url(#a)">
                    <path
                      d="M285.02 112.26a2.66 2.66 0 00-.57-.86l-52.9-52.94a2.66 2.66 0 00-1.88-.78H92.12a2.64 2.64 0 00-2.65 2.65V314.5a2.65 2.65 0 002.65 2.64h190.46a2.65 2.65 0 002.64-2.64V113.28c0-.36-.07-.7-.2-1.02zm-52.7-45.54l43.87 43.91h-43.87zM94.76 311.85V62.97h132.27v50.3a2.65 2.65 0 002.64 2.66h50.26v195.92zm0 0"
                      fill="#fff"
                    />
                  </g>
                  <path
                    d="M187.35 110.63h-52.9a2.64 2.64 0 100 5.3h52.9a2.65 2.65 0 000-5.3zm0 0M187.35 163.58h-52.9a2.65 2.65 0 000 5.3h52.9a2.65 2.65 0 000-5.3zm0 0M187.35 216.54h-52.9a2.65 2.65 0 000 5.29h52.9a2.64 2.64 0 100-5.3zm0 0M187.35 269.49h-52.9a2.64 2.64 0 100 5.3h52.9a2.65 2.65 0 000-5.3zm0 0M248.63 143.58l-19.37 29.09-8.3-8.31a2.65 2.65 0 10-3.74 3.75l10.58 10.59a2.63 2.63 0 004.07-.4l21.17-31.78a2.65 2.65 0 00-4.4-2.94zm0 0M248.63 196.54l-19.37 29.08-8.3-8.3a2.65 2.65 0 10-3.74 3.74l10.58 10.59c.5.5 1.17.77 1.87.77l.26-.01c.79-.09 1.5-.5 1.94-1.17l21.17-31.77a2.65 2.65 0 00-4.4-2.93zm0 0"
                    fill="#fff"
                  />
                </svg>