<?xml version="1.0" encoding="UTF-8"?>
<svg xmlns="http://www.w3.org/2000/svg" xmlns:xlink="http://www.w3.org/1999/xlink" width="40px" height="40px" viewBox="0 0 375 374.999991" version="1.2">
<defs>
<clipPath id="clip1">
  <path d="M 9.609375 43 L 109 43 L 109 143 L 9.609375 143 Z M 9.609375 43 "/>
</clipPath>
<clipPath id="clip2">
  <path d="M 9.609375 160 L 109 160 L 109 259 L 9.609375 259 Z M 9.609375 160 "/>
</clipPath>
<clipPath id="clip3">
  <path d="M 9.609375 276 L 109 276 L 109 375 L 9.609375 375 Z M 9.609375 276 "/>
</clipPath>
</defs>
<g id="surface1">
<path style=" stroke:none;fill-rule:nonzero;fill:rgb(95.289612%,95.689392%,96.469116%);fill-opacity:1;" d="M 58.921875 114.289062 C 58.84375 114.289062 58.761719 114.289062 58.683594 114.285156 C 55.589844 114.207031 52.734375 112.605469 51.054688 110.007812 L 34.902344 85.023438 C 32.089844 80.675781 33.335938 74.871094 37.675781 72.054688 C 42.023438 69.242188 47.820312 70.488281 50.632812 74.835938 L 59.347656 88.3125 L 119.351562 5.160156 C 122.378906 0.960938 128.234375 0.015625 132.429688 3.046875 C 136.625 6.082031 137.570312 11.941406 134.539062 16.140625 L 66.515625 110.402344 C 64.753906 112.847656 61.925781 114.289062 58.921875 114.289062 "/>
<g clip-path="url(#clip1)" clip-rule="nonzero">
<path style=" stroke:none;fill-rule:nonzero;fill:rgb(95.289612%,95.689392%,96.469116%);fill-opacity:1;" d="M 28.472656 123.578125 L 89.539062 123.578125 L 89.539062 62.46875 L 28.472656 62.46875 Z M 98.902344 142.328125 L 19.105469 142.328125 C 13.933594 142.328125 9.738281 138.132812 9.738281 132.957031 L 9.738281 53.089844 C 9.738281 47.914062 13.933594 43.71875 19.105469 43.71875 L 98.902344 43.71875 C 104.082031 43.71875 108.273438 47.914062 108.273438 53.089844 L 108.273438 132.957031 C 108.273438 138.132812 104.082031 142.328125 98.902344 142.328125 "/>
</g>
<g clip-path="url(#clip2)" clip-rule="nonzero">
<path style=" stroke:none;fill-rule:nonzero;fill:rgb(95.289612%,95.689392%,96.469116%);fill-opacity:1;" d="M 28.472656 239.914062 L 89.539062 239.914062 L 89.539062 178.808594 L 28.472656 178.808594 Z M 98.902344 258.667969 L 19.105469 258.667969 C 13.933594 258.667969 9.738281 254.46875 9.738281 249.292969 L 9.738281 169.429688 C 9.738281 164.253906 13.933594 160.054688 19.105469 160.054688 L 98.902344 160.054688 C 104.082031 160.054688 108.273438 164.253906 108.273438 169.429688 L 108.273438 249.292969 C 108.273438 254.46875 104.082031 258.667969 98.902344 258.667969 "/>
</g>
<g clip-path="url(#clip3)" clip-rule="nonzero">
<path style=" stroke:none;fill-rule:nonzero;fill:rgb(95.289612%,95.689392%,96.469116%);fill-opacity:1;" d="M 28.472656 356.253906 L 89.539062 356.253906 L 89.539062 295.144531 L 28.472656 295.144531 Z M 98.902344 375.003906 L 19.105469 375.003906 C 13.933594 375.003906 9.738281 370.804688 9.738281 365.628906 L 9.738281 285.765625 C 9.738281 280.589844 13.933594 276.390625 19.105469 276.390625 L 98.902344 276.390625 C 104.082031 276.390625 108.273438 280.589844 108.273438 285.765625 L 108.273438 365.628906 C 108.273438 370.804688 104.082031 375.003906 98.902344 375.003906 "/>
</g>
<path style=" stroke:none;fill-rule:nonzero;fill:rgb(95.289612%,95.689392%,96.469116%);fill-opacity:1;" d="M 355.542969 102.398438 L 143.1875 102.398438 C 138.007812 102.398438 133.816406 98.203125 133.816406 93.023438 C 133.816406 87.847656 138.007812 83.648438 143.1875 83.648438 L 355.542969 83.648438 C 360.714844 83.648438 364.910156 87.847656 364.910156 93.023438 C 364.910156 98.203125 360.714844 102.398438 355.542969 102.398438 "/>
<path style=" stroke:none;fill-rule:nonzero;fill:rgb(95.289612%,95.689392%,96.469116%);fill-opacity:1;" d="M 355.542969 218.738281 L 143.1875 218.738281 C 138.007812 218.738281 133.816406 214.539062 133.816406 209.359375 C 133.816406 204.183594 138.007812 199.988281 143.1875 199.988281 L 355.542969 199.988281 C 360.714844 199.988281 364.910156 204.183594 364.910156 209.359375 C 364.910156 214.539062 360.714844 218.738281 355.542969 218.738281 "/>
<path style=" stroke:none;fill-rule:nonzero;fill:rgb(95.289612%,95.689392%,96.469116%);fill-opacity:1;" d="M 355.542969 335.074219 L 143.1875 335.074219 C 138.007812 335.074219 133.816406 330.875 133.816406 325.699219 C 133.816406 320.519531 138.007812 316.324219 143.1875 316.324219 L 355.542969 316.324219 C 360.714844 316.324219 364.910156 320.519531 364.910156 325.699219 C 364.910156 330.875 360.714844 335.074219 355.542969 335.074219 "/>
</g>
</svg>
